<svg width="14" height="14" viewBox="0 0 14 14" fill="none" xmlns="http://www.w3.org/2000/svg">
<g clip-path="url(#clip0_259_466)">
<path d="M4.58437 13.9999C5.87237 13.9999 6.9177 12.9546 6.9177 11.6666V9.33328H4.58437C3.29637 9.33328 2.25104 10.3786 2.25104 11.6666C2.25104 12.9546 3.29637 13.9999 4.58437 13.9999Z" fill="#5ECB89"/>
<path d="M2.25104 7.00005C2.25104 5.71205 3.29637 4.66672 4.58437 4.66672H6.9177V9.33338H4.58437C3.29637 9.33338 2.25104 8.28805 2.25104 7.00005Z" fill="#9761F6"/>
<path d="M2.25076 2.33339C2.25076 1.04539 3.2961 6.10352e-05 4.58409 6.10352e-05H6.91743V4.66673H4.58409C3.2961 4.66673 2.25076 3.62139 2.25076 2.33339Z" fill="#E05A33"/>
<path d="M6.91772 6.10352e-05H9.25107C10.5391 6.10352e-05 11.5844 1.04539 11.5844 2.33339C11.5844 3.62139 10.5391 4.66673 9.25107 4.66673H6.91772V6.10352e-05Z" fill="#EE7A69"/>
<path d="M11.5844 7.00005C11.5844 8.28805 10.5391 9.33338 9.25107 9.33338C7.96306 9.33338 6.91772 8.28805 6.91772 7.00005C6.91772 5.71205 7.96306 4.66672 9.25107 4.66672C10.5391 4.66672 11.5844 5.71205 11.5844 7.00005Z" fill="#56BAF8"/>
</g>
<defs>
<clipPath id="clip0_259_466">
<rect width="9.3352" height="14" fill="white" transform="translate(2.25)"/>
</clipPath>
</defs>
</svg>
