<svg width="14" height="14" viewBox="0 0 14 14" fill="none" xmlns="http://www.w3.org/2000/svg">
<g clip-path="url(#clip0_259_476)">
<g opacity="0.9">
<path d="M5.41269 12.3751C5.30742 12.3751 5.20215 12.3354 5.12285 12.2547L2.50059 9.63246C2.34062 9.4725 2.34062 9.21273 2.50059 9.05277C2.66055 8.89281 2.92031 8.89281 3.08027 9.05277L5.70254 11.6751C5.8625 11.835 5.8625 12.0948 5.70254 12.2547C5.62324 12.3354 5.51797 12.3751 5.41269 12.3751Z" fill="#F7B21B"/>
</g>
<g opacity="0.9">
<path d="M5.41541 7.61308C5.31014 7.61308 5.20623 7.57343 5.12557 7.49277L2.50057 4.87462C2.34061 4.71466 2.33924 4.4549 2.4992 4.29494C2.65916 4.13498 2.91893 4.13361 3.07889 4.29357L5.70389 6.91172C5.86385 7.07168 5.86522 7.33144 5.70526 7.4914C5.62596 7.57343 5.52069 7.61308 5.41541 7.61308Z" fill="#F7B21B"/>
</g>
<g opacity="0.9">
<path d="M5.41269 9.99609C5.30742 9.99609 5.20214 9.95644 5.12285 9.87578L2.50605 7.25898C2.34609 7.09902 2.34609 6.83926 2.50605 6.6793C2.66601 6.51934 2.92578 6.51934 3.08574 6.6793L5.70253 9.29609C5.86249 9.45605 5.86249 9.71582 5.70253 9.87578C5.62324 9.95508 5.51796 9.99609 5.41269 9.99609Z" fill="#F7B21B"/>
</g>
<g opacity="0.9">
<path d="M8.46969 9.31796C8.36442 9.31796 8.25914 9.27831 8.17985 9.19765C8.01989 9.03769 8.01989 8.77792 8.17985 8.61796L13.2986 3.49921C13.4586 3.33925 13.7183 3.33925 13.8783 3.49921C14.0383 3.65917 14.0383 3.91894 13.8783 4.0789L8.75954 9.19765C8.68024 9.27831 8.57497 9.31796 8.46969 9.31796Z" fill="#236EB4"/>
</g>
<g opacity="0.9">
<path d="M8.46969 6.93906C8.36442 6.93906 8.25914 6.89941 8.17985 6.81875C8.01989 6.65879 8.01989 6.39902 8.17985 6.23906L11.8193 2.59961L11.2095 1.98984L8.7609 4.43848C8.60094 4.59844 8.34118 4.59844 8.18121 4.43848C8.02125 4.27852 8.02125 4.01875 8.18121 3.85879L10.9197 1.12031C10.9963 1.04375 11.1015 1 11.2095 1C11.3189 1 11.4228 1.04375 11.4994 1.12031L12.6889 2.30977C12.8488 2.46973 12.8488 2.72949 12.6889 2.88945L8.75954 6.81875C8.68024 6.89805 8.57497 6.93906 8.46969 6.93906Z" fill="#236EB4"/>
</g>
<g opacity="0.9">
<path d="M5.41543 7.6131C5.31016 7.6131 5.20488 7.57345 5.12559 7.49279C4.96562 7.33282 4.96562 7.07306 5.12559 6.9131L8.1799 3.8588C8.33986 3.69884 8.59963 3.69884 8.75959 3.8588C8.91956 4.01876 8.91956 4.27853 8.75959 4.43849L5.70664 7.49279C5.62598 7.57345 5.52071 7.6131 5.41543 7.6131Z" fill="#049949"/>
</g>
<g opacity="0.9">
<path d="M5.41268 9.99608C5.30741 9.99608 5.20214 9.95643 5.12284 9.87577C4.96288 9.71581 4.96288 9.45604 5.12284 9.29608L8.17987 6.23905C8.33983 6.07909 8.5996 6.07909 8.75956 6.23905C8.91952 6.39901 8.91952 6.65878 8.75956 6.81874L5.70253 9.87577C5.62323 9.95507 5.51796 9.99608 5.41268 9.99608Z" fill="#049949"/>
</g>
<g opacity="0.9">
<path d="M5.41268 12.375C5.30741 12.375 5.20214 12.3354 5.12284 12.2547C4.96288 12.0947 4.96288 11.835 5.12284 11.675L8.17987 8.61799C8.33983 8.45803 8.5996 8.45803 8.75956 8.61799C8.91952 8.77795 8.91952 9.03771 8.75956 9.19767L5.70253 12.2547C5.62323 12.3354 5.51796 12.375 5.41268 12.375Z" fill="#049949"/>
</g>
<g opacity="0.9">
<path d="M2.79044 9.75276C2.68516 9.75276 2.57989 9.71312 2.50059 9.63245L0.121686 7.25353C0.0451233 7.17697 0.00137329 7.0717 0.00137329 6.96369C0.00137329 6.85568 0.0451233 6.75041 0.121686 6.67384L2.50059 4.29493C2.66055 4.13497 2.92032 4.13497 3.08028 4.29493C3.24024 4.45489 3.24024 4.71466 3.08028 4.87462L0.991217 6.96369L3.08028 9.05276C3.24024 9.21272 3.24024 9.47249 3.08028 9.63245C3.00098 9.71312 2.89571 9.75276 2.79044 9.75276Z" fill="#E32628"/>
</g>
</g>
<defs>
<clipPath id="clip0_259_476">
<rect width="14" height="11.375" fill="white" transform="translate(0 1)"/>
</clipPath>
</defs>
</svg>
